<svg width="238" height="100" viewBox="0 0 238 100" fill="none" xmlns="http://www.w3.org/2000/svg">
<g clip-path="url(#clip0_2750_8240)">
<g opacity="0.5">

</g>












































<g opacity="0.33">

</g>











<path d="M109.544 84.3269C106.947 84.3269 104.271 84.3269 101.674 84.3269V83.3685H102.633C102.633 82.8893 102.633 81.851 102.633 81.3718H103.592C103.592 80.8926 103.592 79.8543 103.592 79.3751H104.55C104.55 78.5365 104.55 77.2586 104.55 76.46C104.071 76.46 103.032 76.46 102.553 76.46C102.553 76.9392 102.553 77.9774 102.553 78.4566H101.594C101.594 78.9359 101.594 79.9741 101.594 80.4533H100.635C100.635 80.9325 100.635 81.9708 100.635 82.45H99.6766C99.6766 82.9292 99.6766 83.9675 99.6766 84.4467H98.7178C98.7178 84.9259 98.7178 85.9642 98.7178 86.4434C102.593 86.4434 106.588 86.4434 110.463 86.4434V85.485H111.422V84.3269C111.062 84.3269 110.103 84.3269 109.544 84.3269Z" fill="#FF8200"/>
<path d="M118.453 80.4534V79.495H119.412C119.412 78.6564 119.412 77.3785 119.412 76.5798C118.932 76.5798 117.894 76.5798 117.414 76.5798C117.414 77.059 117.414 78.0973 117.414 78.5765H116.455C116.455 79.0557 116.455 80.094 116.455 80.5732H115.497C115.497 81.0524 115.497 82.0907 115.497 82.5699H114.538C114.538 83.0491 114.538 84.0874 114.538 84.5666H113.619C113.619 85.0458 113.619 86.0841 113.619 86.5633C114.098 86.5633 115.137 86.5633 115.616 86.5633V85.6049H116.575C116.575 85.1257 116.575 84.0874 116.575 83.6082H117.534C117.534 83.129 117.534 82.0907 117.534 81.6115H118.493L118.453 80.4534Z" fill="#FF8200"/>
<path d="M149.933 79.3751H150.892V78.4566H151.851C151.851 77.9774 151.851 76.9392 151.851 76.46C147.257 76.46 142.702 76.46 138.108 76.46C138.108 76.9392 138.108 77.9774 138.108 78.4566H137.149C137.149 78.9359 137.149 79.9741 137.149 80.4533H136.191C136.191 80.9325 136.191 81.9708 136.191 82.45H135.152C135.152 82.9292 135.152 83.9675 135.152 84.4467H134.193C134.193 84.9259 134.193 85.9642 134.193 86.4434C134.672 86.4434 135.711 86.4434 136.191 86.4434V85.485H137.149C137.149 85.0058 137.149 83.9675 137.149 83.4883H138.108V82.5299C141.384 82.5299 144.7 82.5299 147.976 82.5299V81.5715H148.934V80.6131H149.893V79.3352L149.933 79.3751ZM147.936 79.3751H146.977V80.3335C144.38 80.3335 141.704 80.3335 139.107 80.3335V79.3751H140.066V78.4566C142.662 78.4566 145.339 78.4566 147.936 78.4566V79.3751Z" fill="#FF8200"/>
<path d="M134.193 79.3751H135.152V78.4566H136.111C136.111 77.9774 136.111 76.9392 136.111 76.46C131.516 76.46 126.962 76.46 122.368 76.46C122.368 76.9392 122.368 77.9774 122.368 78.4566H121.409C121.409 78.9359 121.409 79.9741 121.409 80.4533H120.45C120.45 80.9325 120.45 81.9708 120.45 82.45H119.492C119.492 82.9292 119.492 83.9675 119.492 84.4467H118.533C118.533 84.9259 118.533 85.9642 118.533 86.4434C119.012 86.4434 120.051 86.4434 120.53 86.4434V85.485H121.489C121.489 85.0058 121.489 83.9675 121.489 83.4883H122.448V82.5299C125.724 82.5299 129.04 82.5299 132.315 82.5299V81.5715H133.274V80.6131H134.233V79.3751H134.193ZM132.196 79.3751H131.237V80.3335C128.64 80.3335 125.963 80.3335 123.367 80.3335V79.3751H124.325V78.4566C126.922 78.4566 129.599 78.4566 132.196 78.4566V79.3751Z" fill="#FF8200"/>
<path d="M166.592 78.4564V77.498H167.551V76.5396C162.957 76.5396 158.403 76.5396 153.808 76.5396C153.808 77.0188 153.808 78.057 153.808 78.5362H152.85C152.85 79.0154 152.85 80.0537 152.85 80.5329H151.891C151.891 81.0121 151.891 82.0504 151.891 82.5296H150.932C150.932 83.0088 150.932 84.0471 150.932 84.5263H149.973C149.973 85.0055 149.973 86.0438 149.973 86.523C154.208 86.523 158.562 86.523 162.757 86.523V85.5646H163.716V84.2867C160.2 84.2867 156.445 84.2867 152.929 84.2867V83.3283H153.888V82.4498C156.805 82.4498 159.761 82.4498 162.677 82.4498V81.4913H163.636V80.5329C160.72 80.5329 157.763 80.5329 154.847 80.5329V79.5745H155.806V78.4564C159.441 78.4564 163.077 78.4564 166.592 78.4564Z" fill="#FF8200"/>
<path d="M99.7964 78.4564V77.498H100.755V76.5396C95.8414 76.5396 90.8876 76.5396 85.9738 76.5396C85.9738 77.0188 85.9738 78.057 85.9738 78.5362H85.015C85.015 79.0154 85.015 80.0537 85.015 80.5329H84.0562C84.0562 81.0121 84.0562 82.0504 84.0562 82.5296H83.0975C83.0975 83.0088 83.0975 84.0471 83.0975 84.5263H82.1387C82.1387 85.0055 82.1387 86.0438 82.1387 86.523H81.1C81.1 87.0022 81.1 88.0405 81.1 88.5197C81.5794 88.5197 82.6181 88.5197 83.0975 88.5197V87.5613H84.0562C84.0562 87.0821 84.0562 86.0438 84.0562 85.5646H85.015C85.015 85.0854 85.015 84.0471 85.015 83.5679H85.9738V82.6095C88.8901 82.6095 91.8464 82.6095 94.7627 82.6095V81.6511H95.7215V80.6927C92.8052 80.6927 89.8489 80.6927 86.9326 80.6927V79.7343H87.8914V78.4564C91.9263 78.4564 95.9213 78.4564 99.7964 78.4564Z" fill="#FF8200"/>
<path d="M183.411 76.46C178.817 76.46 174.263 76.46 169.668 76.46C169.668 76.9392 169.668 77.9774 169.668 78.4566H168.71C168.71 78.9359 168.71 79.9741 168.71 80.4533H167.751C167.751 80.9325 167.751 81.9708 167.751 82.45H166.792C166.792 82.9292 166.792 83.9675 166.792 84.4467H165.633C165.633 84.9259 165.633 85.9642 165.633 86.4434C166.113 86.4434 167.152 86.4434 167.631 86.4434V85.485H168.59C168.59 85.0058 168.59 83.9675 168.59 83.4883H169.548V82.5299C171.786 82.5299 174.143 82.5299 176.46 82.5299V83.4883H177.419V84.3269H178.377V85.2853H179.336V86.2437H180.295V87.2021H181.254V88.1606C181.733 88.1606 182.772 88.1606 183.251 88.1606C183.251 87.6814 183.251 86.6431 183.251 86.1639H182.292V85.2055H181.334V84.3669H180.335V83.4084H179.376C179.376 82.9292 179.376 81.891 179.376 81.4117H180.335V80.4533H181.294V79.4949H182.252V78.4566H183.211V77.4982H184.17V76.5398H183.451L183.411 76.46ZM179.416 79.3751H178.457V80.3335C175.861 80.3335 173.184 80.3335 170.587 80.3335V79.3751H171.546V78.4566C174.143 78.4566 176.819 78.4566 179.416 78.4566V79.3751Z" fill="#FF8200"/>
<g opacity="0.33">

</g>

<path d="M215.555 42.7371C220.594 42.7371 223.673 46.8392 223.673 50.583C223.673 54.2072 221.074 58.0704 215.915 58.0704C210.996 57.9509 207.797 53.9683 207.797 50.2245C207.917 46.4808 211.076 42.8565 215.555 42.7371Z" fill="#FF8200"/>

<path d="M181.086 10.0793C195.49 10.3184 206.202 22.1532 206.202 33.988C206.082 46.4206 196.172 58.1358 181.768 58.1358C167.365 58.0163 155.81 47.3769 155.931 33.4302C156.091 20.0413 167.766 9.84023 181.086 10.0793Z" fill="#FF8200"/>












<path d="M142.695 57.5H64.0485C62.1693 57.5 60.65 55.9852 60.65 54.1116V13.9285C60.65 12.0549 62.1693 10.54 64.0485 10.54H142.575C144.454 10.54 145.973 12.0549 145.973 13.9285V54.1116C146.093 55.9852 144.574 57.5 142.695 57.5Z" fill="#FF8200"/>

</g>
<defs>
<clipPath id="clip0_2750_8240">

</clipPath>
</defs>
</svg>
