<svg width="238" height="100" viewBox="0 0 238 100" fill="none" xmlns="http://www.w3.org/2000/svg">
<g clip-path="url(#clip0_2739_18435)">











<path d="M180.998 10.0704C195.336 10.3046 206.032 22.1313 206.032 33.958C205.914 46.3701 196.041 58.0797 181.703 58.0797C167.364 57.9626 155.846 47.3069 155.963 33.3725C156.081 20.0235 167.717 9.83617 180.998 10.0704Z" fill="#FF8200"/>

<path d="M215.552 42.74C220.605 42.74 223.661 46.8384 223.661 50.5854C223.661 54.2154 221.076 58.0796 215.904 58.0796C210.968 57.9625 207.795 53.9812 207.795 50.2341C207.912 46.4871 211.085 42.8571 215.552 42.74Z" fill="#FF8200"/>











<path d="M142.682 57.4941H64.0543C62.1738 57.4941 60.6459 55.9718 60.6459 54.0983V13.9344C60.6459 12.0608 62.1738 10.5386 64.0543 10.5386H142.565C144.445 10.5386 145.973 12.0608 145.973 13.9344V54.0983C146.091 55.9718 144.563 57.4941 142.682 57.4941Z" fill="#FF8200"/>

<path d="M109.539 84.3091C106.953 84.3091 104.25 84.3091 101.664 84.3091V83.3723H102.604C102.604 82.9039 102.604 81.85 102.604 81.3817H103.545C103.545 80.9133 103.545 79.8594 103.545 79.391H104.485C104.485 78.5714 104.485 77.2833 104.485 76.4636C104.015 76.4636 102.957 76.4636 102.487 76.4636C102.487 76.932 102.487 77.9859 102.487 78.4543H101.547C101.547 78.9226 101.547 79.9765 101.547 80.4449H100.606C100.606 80.9133 100.606 81.9671 100.606 82.4355H99.6662C99.6662 82.9039 99.6662 83.9578 99.6662 84.4261H98.7259C98.7259 84.8945 98.7259 85.9484 98.7259 86.4168C102.604 86.4168 106.6 86.4168 110.479 86.4168V85.48H111.419V84.3091C111.067 84.3091 110.126 84.3091 109.539 84.3091Z" fill="#FF8200"/>
<path d="M118.471 80.445V79.5082H119.411C119.411 78.6885 119.411 77.4005 119.411 76.5808C118.941 76.5808 117.883 76.5808 117.413 76.5808C117.413 77.0492 117.413 78.1031 117.413 78.5714H116.473C116.473 79.0398 116.473 80.0937 116.473 80.5621H115.533C115.533 81.0305 115.533 82.0843 115.533 82.5527H114.593C114.593 83.0211 114.593 84.075 114.593 84.5433H113.652C113.652 85.0117 113.652 86.0656 113.652 86.534C114.122 86.534 115.18 86.534 115.65 86.534V85.5972H116.591C116.591 85.1288 116.591 84.075 116.591 83.6066H117.531C117.531 83.1382 117.531 82.0843 117.531 81.6159H118.471V80.445Z" fill="#FF8200"/>
<path d="M149.969 79.391H150.91V78.4543H151.85C151.85 77.9859 151.85 76.932 151.85 76.4636C147.266 76.4636 142.682 76.4636 138.099 76.4636C138.099 76.932 138.099 77.9859 138.099 78.4543H137.159C137.159 78.9226 137.159 79.9765 137.159 80.4449H136.218C136.218 80.9133 136.218 81.9671 136.218 82.4355H135.16C135.16 82.9039 135.16 83.9578 135.16 84.4261H134.22C134.22 84.8945 134.22 85.9484 134.22 86.4168C134.69 86.4168 135.748 86.4168 136.218 86.4168V85.48H137.159C137.159 85.0116 137.159 83.9578 137.159 83.4894H138.099V82.5526C141.39 82.5526 144.681 82.5526 147.971 82.5526V81.6158H148.912V80.6791H149.852V79.391H149.969ZM147.971 79.391H147.031V80.3278C144.445 80.3278 141.742 80.3278 139.157 80.3278V79.391H140.097V78.4543C142.682 78.4543 145.386 78.4543 147.971 78.4543V79.391Z" fill="#FF8200"/>
<path d="M134.22 79.391H135.161V78.4543H136.101C136.101 77.9859 136.101 76.932 136.101 76.4636C131.517 76.4636 126.933 76.4636 122.35 76.4636C122.35 76.932 122.35 77.9859 122.35 78.4543H121.409C121.409 78.9226 121.409 79.9765 121.409 80.4449H120.469C120.469 80.9133 120.469 81.9671 120.469 82.4355H119.529C119.529 82.9039 119.529 83.9578 119.529 84.4261H118.589C118.589 84.8945 118.589 85.9484 118.589 86.4168C119.059 86.4168 120.117 86.4168 120.587 86.4168V85.48H121.527C121.527 85.0116 121.527 83.9578 121.527 83.4894H122.467V82.5526C125.758 82.5526 129.049 82.5526 132.34 82.5526V81.6158H133.28V80.6791H134.22V79.391ZM132.222 79.391H131.282V80.3278C128.696 80.3278 125.993 80.3278 123.407 80.3278V79.391H124.348V78.4543C126.933 78.4543 129.637 78.4543 132.222 78.4543V79.391Z" fill="#FF8200"/>
<path d="M166.659 78.4543V77.5176H167.599V76.5808C163.015 76.5808 158.432 76.5808 153.848 76.5808C153.848 77.0492 153.848 78.1031 153.848 78.5714H152.908C152.908 79.0398 152.908 80.0937 152.908 80.5621H151.967C151.967 81.0305 151.967 82.0843 151.967 82.5527H151.027C151.027 83.0211 151.027 84.075 151.027 84.5433H150.087C150.087 85.0117 150.087 86.0656 150.087 86.534C154.318 86.534 158.667 86.534 162.898 86.534V85.5972H163.838V84.3091C160.312 84.3091 156.551 84.3091 153.025 84.3091V83.3724H153.965V82.4356C156.904 82.4356 159.842 82.4356 162.78 82.4356V81.4988H163.721V80.5621C160.782 80.5621 157.844 80.5621 154.906 80.5621V79.6253H155.846V78.4543C159.489 78.4543 163.133 78.4543 166.659 78.4543Z" fill="#FF8200"/>
<path d="M99.7837 78.4543V77.5176H100.724V76.5808C95.7877 76.5808 90.8514 76.5808 85.9151 76.5808C85.9151 77.0492 85.9151 78.1031 85.9151 78.5714H84.9748C84.9748 79.0398 84.9748 80.0937 84.9748 80.5621H84.0346C84.0346 81.0305 84.0346 82.0843 84.0346 82.5527H83.0943C83.0943 83.0211 83.0943 84.075 83.0943 84.5433H82.1541C82.1541 85.0117 82.1541 86.0656 82.1541 86.534H81.0963C81.0963 87.0024 81.0963 88.0562 81.0963 88.5246C81.5664 88.5246 82.6242 88.5246 83.0943 88.5246V87.5878H84.0346C84.0346 87.1195 84.0346 86.0656 84.0346 85.5972H84.9748C84.9748 85.1288 84.9748 84.075 84.9748 83.6066H85.9151V82.6698C88.8533 82.6698 91.7916 82.6698 94.7299 82.6698V81.733H95.6701V80.7963C92.7319 80.7963 89.7936 80.7963 86.8553 80.7963V79.8595H87.7956V78.4543C91.9091 78.4543 95.9052 78.4543 99.7837 78.4543Z" fill="#FF8200"/>
<path d="M183.466 76.4636C178.882 76.4636 174.298 76.4636 169.715 76.4636C169.715 76.932 169.715 77.9859 169.715 78.4543H168.774C168.774 78.9226 168.774 79.9765 168.774 80.4449H167.834C167.834 80.9133 167.834 81.9671 167.834 82.4355H166.894C166.894 82.9039 166.894 83.9578 166.894 84.4261H165.719C165.719 84.8945 165.719 85.9484 165.719 86.4168C166.189 86.4168 167.246 86.4168 167.717 86.4168V85.48H168.657C168.657 85.0116 168.657 83.9578 168.657 83.4894H169.597V82.5526C171.83 82.5526 174.181 82.5526 176.531 82.5526V83.4894H177.472V84.3091H178.412V85.2458H179.352V86.1826H180.292V87.1194H181.233V88.0561C181.703 88.0561 182.76 88.0561 183.231 88.0561C183.231 87.5877 183.231 86.5339 183.231 86.0655H182.29V85.1287H181.35V84.3091H180.41V83.3723H179.47C179.47 82.9039 179.47 81.85 179.47 81.3817H180.41V80.4449H181.35V79.5081H182.29V78.4543H183.231V77.5175H184.171V76.5807H183.466V76.4636ZM179.47 79.391H178.529V80.3278C175.944 80.3278 173.24 80.3278 170.655 80.3278V79.391H171.595V78.4543C174.181 78.4543 176.884 78.4543 179.47 78.4543V79.391Z" fill="#FF8200"/>
</g>
<defs>
<clipPath id="clip0_2739_18435">

</clipPath>
</defs>
</svg>
